<svg xmlns="http://www.w3.org/2000/svg" viewBox="0 0 735 735" width="32" height="32">
  <title>Asset 3</title>
  <g id="b9dcd6de-d36d-468f-9648-1ba60e3df8f0">
    <g id="f5106b0b-4a3e-4db7-a1cd-cbdb03cacbdd">
      <g>
        <path d="M367.5,734.5A367.09,367.09,0,0,1,224.65,29.34a367.09,367.09,0,0,1,285.7,676.32A364.64,364.64,0,0,1,367.5,734.5Z" style="fill: #2a2b2a"/>
        <path d="M367.5,1A366.6,366.6,0,0,1,510.16,705.2,366.6,366.6,0,0,1,224.84,29.8,364.25,364.25,0,0,1,367.5,1m0-1C164.54,0,0,164.54,0,367.5S164.54,735,367.5,735,735,570.46,735,367.5,570.46,0,367.5,0Z" style="fill: #2a2b2a"/>
      </g>
      <path d="M227.9,577.8q-37.11-39.9-37.1-132.3,0-73.5,24.85-158.2t79.8-145.25Q350.4,81.51,435.1,81.5q52.5,0,84.7,23.1T552,175.3q0,30.1-11.9,47.25T503,239.7q-25.2,0-39.9-18.2,12.6-6.3,22.4-25.2a84.14,84.14,0,0,0,9.8-39.2q0-18.9-10.15-30.8T452.6,114.4q-37.11,0-70.7,50.75T327.65,292.9Q307,369.91,307,441.3q0,53.2,18.2,81.2t65.8,28q41.29,0,76.3-18.2t60.2-51.8l16.1,7q-17.51,44.1-51.8,73.5t-73.5,43q-39.21,13.65-74.2,13.65Q265,617.7,227.9,577.8Z" style="fill: #ff8966"/>
    </g>
  </g>
</svg>
