<svg xmlns="http://www.w3.org/2000/svg" viewBox="0 0 2404.82 2400.21" width="500" height="500">
  <g id="edeb3673-b331-474d-98dd-2b7c55ab5cab">
    <g id="a8868368-a454-4aa7-9a17-f4b611c9f34e">
      <g>
        <path d="M1715.94,462.44,1909.34,232C2088,362.64,2230.1,544.68,2312.84,750h-333.2a903.17,903.17,0,0,0-94.29-133.44c-2.84-3.29-6.8-7.95-11-12.71A906.1,906.1,0,0,0,1715.94,462.44Z" style="fill: #232323"/>
        <path d="M1576.72,2339.69c-.79.28-1.59.54-2.39.8h0C1575.12,2340.23,1575.92,2340,1576.72,2339.69Z" style="fill: #232323"/>
        <path d="M1200.05,0a1200.75,1200.75,0,0,1,340.62,49l-217.6,259.32C802.12,237.73,340.63,622.13,302.48,1133.6c-40,556.61,425.92,1007.94,971.64,963.38,7.68-.6,17.83-1.59,28.3-2.74l219.86,262C815.25,2549.82,122.14,2082.33,13.92,1383-97.27,645.72,472.13.29,1200.05,0Z" style="fill: #232323"/>
        <path d="M1852.09,192.42q-8.13-5.28-16.34-10.42Q1844,187.13,1852.09,192.42Z" style="fill: #232323"/>
        <path d="M2404.82,1250c-15.08,374.68-204.37,715-503.89,928.31l-193.69-230.83c2.85-1.89,5.92-4,10.7-7.29h.23l33.88-24.34v-.5c122.45-92.37,210.73-210,287.34-365.35H1373.71l-242.87-289.45h0Z" style="fill: #232323"/>
        <path d="M1574.32,2340.48h0c.8-.26,1.6-.52,2.39-.8C1575.92,2340,1575.12,2340.23,1574.32,2340.48Z" style="fill: #fff"/>
      </g>
      <g>
        <path d="M1658.8,1974.44l194.81,232.16a1191.76,1191.76,0,0,1-279.29,133.88c-35.61-42.45-230-274-261-311h0l-684.6-815.88L1592.12,65.5a1192.22,1192.22,0,0,1,276.16,137.61L1020.38,1213.6C1214.6,1445.05,1463.76,1742,1658.8,1974.44Z" style="fill: #950000"/>
        <path d="M1576.72,2339.69c-.79.28-1.59.54-2.39.8h0C1575.12,2340.23,1575.92,2340,1576.72,2339.69Z" style="fill: #232323"/>
        <path d="M1852.09,192.42q-8.13-5.28-16.34-10.42Q1844,187.13,1852.09,192.42Z" style="fill: #232323"/>
        <path d="M1835.75,182q8.2,5.15,16.34,10.42Q1844,187.13,1835.75,182Z" style="fill: #fff"/>
      </g>
    </g>
  </g>
</svg>
