<?xml version="1.0" encoding="utf-8"?>
<!-- Generator: Adobe Illustrator 23.0.3, SVG Export Plug-In . SVG Version: 6.00 Build 0)  -->
<svg version="1.1" xmlns="http://www.w3.org/2000/svg" xmlns:xlink="http://www.w3.org/1999/xlink" x="0px" y="0px"
	 viewBox="0 0 510 510" style="enable-background:new 0 0 510 510;" xml:space="preserve">
<style type="text/css">
	.st0{fill:#232323;}
	.st1{fill:#FFFFFF;}
	.st2{fill:#950000;}
</style>
<g id="Layer_2">
</g>
<g id="Layer_1">
	<g id="edeb3673-b331-474d-98dd-2b7c55ab5cab">
		<g id="a8868368-a454-4aa7-9a17-f4b611c9f34e">
			<g>
				<path class="st0" d="M361.8,101.6L402,53.7c37.1,27.2,66.7,65,83.9,107.7h-69.3c-5.7-9.8-12.2-19.1-19.6-27.7
					c-0.6-0.7-1.4-1.7-2.3-2.6C384.9,120,373.9,110.1,361.8,101.6z"/>
				<path class="st0" d="M254.5,5.5c24,0,47.8,3.4,70.8,10.2l-45.2,53.9C171.8,54.9,75.8,134.8,67.9,241.2
					c-8.3,115.7,88.6,209.6,202,200.3c1.6-0.1,3.7-0.3,5.9-0.6l45.7,54.5c-147,40.2-291.1-57-313.6-202.4
					C-15.2,139.7,103.2,5.5,254.5,5.5z"/>
				<path class="st0" d="M332.8,491.9c-0.2,0.1-0.3,0.1-0.5,0.2l0,0C332.5,492,332.7,492,332.8,491.9z"/>
				<path class="st0" d="M390.1,45.5c-1.1-0.7-2.3-1.5-3.4-2.2C387.8,44,389,44.8,390.1,45.5z"/>
				<path class="st0" d="M505,265.4c-3.1,77.9-42.5,148.7-104.8,193l-40.3-48c0.6-0.4,1.2-0.8,2.2-1.5h0l7-5.1v-0.1
					c25.5-19.2,43.8-43.7,59.7-76H290.6l-50.5-60.2l0,0L505,265.4z"/>
				<path class="st1" d="M332.3,492.1L332.3,492.1c0.2-0.1,0.3-0.1,0.5-0.2C332.7,492,332.5,492,332.3,492.1z"/>
			</g>
			<g>
				<path class="st2" d="M349.9,416l40.5,48.3c-18.1,11.8-37.6,21.1-58.1,27.8c-7.4-8.8-47.8-57-54.3-64.7l0,0L135.7,257.8L336,19.1
					c20.3,7,39.6,16.6,57.4,28.6L217.2,257.8C257.5,305.9,309.3,367.7,349.9,416z"/>
				<path class="st0" d="M332.8,491.9c-0.2,0.1-0.3,0.1-0.5,0.2l0,0C332.5,492,332.7,492,332.8,491.9z"/>
				<path class="st0" d="M390.1,45.5c-1.1-0.7-2.3-1.5-3.4-2.2C387.8,44,389,44.8,390.1,45.5z"/>
			</g>
		</g>
	</g>
</g>
</svg>
